<svg xmlns="http://www.w3.org/2000/svg" width="980" height="660" viewBox="0 0 980 660">
<rect width="100%" height="100%" fill="white"/>
<text x="78" y="28" font-family="Arial" font-size="18" font-weight="700">6MeV_10_one_onaxis</text>
<text x="78" y="48" font-family="Arial" font-size="12">CSV shift 0.391 mm | RMS >=10% 3.942 percentage points</text>
<rect x="78" y="58" width="874" height="385" fill="#fbfbfb" stroke="#222"/>
<rect x="78" y="491" width="874" height="115" fill="#fbfbfb" stroke="#222"/>
<line x1="78" x2="952" y1="443.00" y2="443.00" stroke="#e1e1e1"/>
<text x="68" y="447.00" text-anchor="end" font-family="Arial" font-size="11">0.0</text>
<line x1="78" x2="952" y1="372.14" y2="372.14" stroke="#e1e1e1"/>
<text x="68" y="376.14" text-anchor="end" font-family="Arial" font-size="11">0.2</text>
<line x1="78" x2="952" y1="301.28" y2="301.28" stroke="#e1e1e1"/>
<text x="68" y="305.28" text-anchor="end" font-family="Arial" font-size="11">0.4</text>
<line x1="78" x2="952" y1="230.42" y2="230.42" stroke="#e1e1e1"/>
<text x="68" y="234.42" text-anchor="end" font-family="Arial" font-size="11">0.6</text>
<line x1="78" x2="952" y1="159.55" y2="159.55" stroke="#e1e1e1"/>
<text x="68" y="163.55" text-anchor="end" font-family="Arial" font-size="11">0.8</text>
<line x1="78" x2="952" y1="88.69" y2="88.69" stroke="#e1e1e1"/>
<text x="68" y="92.69" text-anchor="end" font-family="Arial" font-size="11">1.0</text>
<line x1="78.00" x2="78.00" y1="58" y2="443" stroke="#eeeeee"/>
<line x1="78.00" x2="78.00" y1="491" y2="606" stroke="#eeeeee"/>
<text x="78.00" y="636" text-anchor="middle" font-family="Arial" font-size="11">-99</text>
<line x1="187.25" x2="187.25" y1="58" y2="443" stroke="#eeeeee"/>
<line x1="187.25" x2="187.25" y1="491" y2="606" stroke="#eeeeee"/>
<text x="187.25" y="636" text-anchor="middle" font-family="Arial" font-size="11">-74</text>
<line x1="296.50" x2="296.50" y1="58" y2="443" stroke="#eeeeee"/>
<line x1="296.50" x2="296.50" y1="491" y2="606" stroke="#eeeeee"/>
<text x="296.50" y="636" text-anchor="middle" font-family="Arial" font-size="11">-49</text>
<line x1="405.75" x2="405.75" y1="58" y2="443" stroke="#eeeeee"/>
<line x1="405.75" x2="405.75" y1="491" y2="606" stroke="#eeeeee"/>
<text x="405.75" y="636" text-anchor="middle" font-family="Arial" font-size="11">-24</text>
<line x1="515.00" x2="515.00" y1="58" y2="443" stroke="#eeeeee"/>
<line x1="515.00" x2="515.00" y1="491" y2="606" stroke="#eeeeee"/>
<text x="515.00" y="636" text-anchor="middle" font-family="Arial" font-size="11">0</text>
<line x1="624.25" x2="624.25" y1="58" y2="443" stroke="#eeeeee"/>
<line x1="624.25" x2="624.25" y1="491" y2="606" stroke="#eeeeee"/>
<text x="624.25" y="636" text-anchor="middle" font-family="Arial" font-size="11">25</text>
<line x1="733.50" x2="733.50" y1="58" y2="443" stroke="#eeeeee"/>
<line x1="733.50" x2="733.50" y1="491" y2="606" stroke="#eeeeee"/>
<text x="733.50" y="636" text-anchor="middle" font-family="Arial" font-size="11">50</text>
<line x1="842.75" x2="842.75" y1="58" y2="443" stroke="#eeeeee"/>
<line x1="842.75" x2="842.75" y1="491" y2="606" stroke="#eeeeee"/>
<text x="842.75" y="636" text-anchor="middle" font-family="Arial" font-size="11">75</text>
<line x1="952.00" x2="952.00" y1="58" y2="443" stroke="#eeeeee"/>
<line x1="952.00" x2="952.00" y1="491" y2="606" stroke="#eeeeee"/>
<text x="952.00" y="636" text-anchor="middle" font-family="Arial" font-size="11">100</text>
<line x1="78" x2="952" y1="606.00" y2="606.00" stroke="#e1e1e1"/>
<text x="68" y="610.00" text-anchor="end" font-family="Arial" font-size="11">-16.2</text>
<line x1="78" x2="952" y1="548.50" y2="548.50" stroke="#999999"/>
<text x="68" y="552.50" text-anchor="end" font-family="Arial" font-size="11">0.0</text>
<line x1="78" x2="952" y1="491.00" y2="491.00" stroke="#e1e1e1"/>
<text x="68" y="495.00" text-anchor="end" font-family="Arial" font-size="11">16.2</text>
<line x1="280.50" x2="280.50" y1="58" y2="443" stroke="#0b5cad" opacity="0.45"/>
<line x1="517.84" x2="517.84" y1="58" y2="443" stroke="#0b5cad" opacity="0.45"/>
<line x1="282.33" x2="282.33" y1="58" y2="443" stroke="#c65f00" opacity="0.45" stroke-dasharray="6 5"/>
<line x1="511.94" x2="511.94" y1="58" y2="443" stroke="#c65f00" opacity="0.45" stroke-dasharray="6 5"/>
<polyline fill="none" stroke="#0b5cad" stroke-width="2.2" points="78.00,440.13 82.39,440.13 86.78,440.13 91.18,440.14 95.57,440.14 99.96,440.08 104.35,440.01 108.74,439.95 113.14,439.89 117.53,439.82 121.92,439.66 126.31,439.49 130.70,439.33 135.10,439.16 139.49,439.00 143.88,438.77 148.27,438.53 152.66,438.30 157.06,438.07 161.45,437.84 165.84,437.43 170.23,437.03 174.62,436.62 179.02,436.22 183.41,435.81 187.80,434.89 192.19,433.97 196.58,433.05 200.97,432.14 205.37,431.22 209.76,428.83 214.15,426.43 218.54,424.04 222.93,421.65 227.33,419.26 231.72,412.65 236.11,406.04 240.50,399.42 244.89,392.81 249.29,386.20 253.68,370.98 258.07,355.77 262.46,340.56 266.85,325.34 271.25,310.13 275.64,289.10 280.03,268.07 284.42,247.05 288.81,226.02 293.21,204.99 297.60,191.14 301.99,177.29 306.38,163.43 310.77,149.58 315.17,135.73 319.56,130.19 323.95,124.65 328.34,119.12 332.73,113.58 337.13,108.04 341.52,105.91 345.91,103.77 350.30,101.64 354.69,99.50 359.09,97.37 363.48,96.31 367.87,95.25 372.26,94.19 376.65,93.13 381.05,92.07 385.44,91.40 389.83,90.73 394.22,90.05 398.61,89.38 403.01,88.71 407.40,88.27 411.79,87.83 416.18,87.39 420.57,86.96 424.96,86.52 429.36,86.56 433.75,86.60 438.14,86.64 442.53,86.68 446.92,86.71 451.32,87.80 455.71,88.89 460.10,89.98 464.49,91.08 468.88,92.17 473.28,97.54 477.67,102.92 482.06,108.29 486.45,113.66 490.84,119.04 495.24,141.65 499.63,164.25 504.02,186.86 508.41,209.46 512.80,232.07 517.20,261.55 521.59,291.02 525.98,320.49 530.37,349.97 534.76,379.44 539.16,387.95 543.55,396.45 547.94,404.95 552.33,413.45 556.72,421.95 561.12,424.20 565.51,426.44 569.90,428.68 574.29,430.93 578.68,433.17 583.08,433.88 587.47,434.60 591.86,435.31 596.25,436.02 600.64,436.74 605.04,436.99 609.43,437.24 613.82,437.48 618.21,437.73 622.60,437.98 626.99,438.10 631.39,438.21 635.78,438.32 640.17,438.44 644.56,438.55 648.95,438.62 653.35,438.69 657.74,438.76 662.13,438.83 666.52,438.90 670.91,438.96 675.31,439.03 679.70,439.09 684.09,439.15 688.48,439.22 692.87,439.28 697.27,439.35 701.66,439.41 706.05,439.48 710.44,439.55 714.83,439.63 719.23,439.71 723.62,439.79 728.01,439.88 732.40,439.96 736.79,440.11 741.19,440.26 745.58,440.42 749.97,440.57 754.36,440.72 758.75,440.83 763.15,440.93 767.54,441.04 771.93,441.14 776.32,441.25 780.71,441.31 785.11,441.36 789.50,441.42 793.89,441.48 798.28,441.54 802.67,441.56 807.07,441.58 811.46,441.60 815.85,441.63 820.24,441.65 824.63,441.65 829.03,441.66 833.42,441.67 837.81,441.67 842.20,441.68 846.59,441.69 850.98,441.70 855.38,441.71 859.77,441.72 864.16,441.73 868.55,441.74 872.94,441.74 877.34,441.74 881.73,441.74 886.12,441.74 890.51,441.76 894.90,441.78 899.30,441.80 903.69,441.82 908.08,441.84 912.47,441.89 916.86,441.93 921.26,441.97 925.65,442.02 930.04,442.06 934.43,442.08 938.82,442.10 943.22,442.11 947.61,442.13 952.00,442.15"/>
<polyline fill="none" stroke="#c65f00" stroke-width="2.0" points="78.00,441.68 82.39,441.62 86.78,441.57 91.18,441.48 95.57,441.40 99.96,441.40 104.35,441.38 108.74,441.30 113.14,441.20 117.53,441.07 121.92,440.95 126.31,440.86 130.70,440.74 135.10,440.54 139.49,440.37 143.88,440.34 148.27,440.29 152.66,440.13 157.06,439.93 161.45,439.56 165.84,439.19 170.23,438.83 174.62,438.43 179.02,437.91 183.41,437.37 187.80,436.81 192.19,436.14 196.58,435.07 200.97,434.02 205.37,433.04 209.76,431.88 214.15,430.09 218.54,428.12 222.93,425.51 227.33,422.68 231.72,418.99 236.11,414.82 240.50,408.79 244.89,402.13 249.29,393.08 253.68,383.21 258.07,370.27 262.46,356.41 266.85,339.07 271.25,320.87 275.64,299.38 280.03,277.66 284.42,255.08 288.81,232.92 293.21,212.39 297.60,193.09 301.99,178.47 306.38,164.34 310.77,152.08 315.17,140.95 319.56,134.12 323.95,127.29 328.34,120.48 332.73,114.57 337.13,112.10 341.52,109.32 345.91,105.34 350.30,101.95 354.69,100.80 359.09,99.58 363.48,98.12 367.87,96.81 372.26,96.10 376.65,95.12 381.05,93.13 385.44,91.65 389.83,92.11 394.22,92.10 398.61,90.29 403.01,88.72 407.40,88.03 411.79,87.51 416.18,87.61 420.57,87.71 424.96,87.82 429.36,87.96 433.75,88.17 438.14,88.17 442.53,87.37 446.92,86.99 451.32,88.18 455.71,89.47 460.10,91.11 464.49,92.93 468.88,95.44 473.28,98.69 477.67,104.68 482.06,111.37 486.45,120.70 490.84,131.55 495.24,148.20 499.63,168.15 504.02,200.57 508.41,234.41 512.80,273.59 517.20,310.88 521.59,340.96 525.98,368.02 530.37,383.61 534.76,397.73 539.16,406.28 543.55,414.10 547.94,419.19 552.33,423.85 556.72,426.89 561.12,429.68 565.51,431.58 569.90,433.37 574.29,434.77 578.68,436.04 583.08,436.77 587.47,437.45 591.86,437.91 596.25,438.31 600.64,438.47 605.04,438.61 609.43,438.71 613.82,438.80 618.21,438.86 622.60,438.89 626.99,438.84 631.39,438.83 635.78,438.98 640.17,439.11 644.56,439.09 648.95,439.09 653.35,439.12 657.74,439.13 662.13,439.09 666.52,439.08 670.91,439.17 675.31,439.24 679.70,439.22 684.09,439.22 688.48,439.29 692.87,439.35 697.27,439.44 701.66,439.50 706.05,439.49 710.44,439.51 714.83,439.65 719.23,439.77 723.62,439.80 728.01,439.85 732.40,439.96 736.79,440.09 741.19,440.32 745.58,440.54 749.97,440.67 754.36,440.82 758.75,441.01 763.15,441.17 767.54,441.21 771.93,441.28 776.32,441.43 780.71,441.55 785.11,441.55 789.50,441.56 793.89,441.57 798.28,441.60 802.67,441.66 807.07,441.72 811.46,441.74 815.85,441.76 820.24,441.81 824.63,441.86 829.03,441.85 833.42,441.86 837.81,441.90 842.20,441.94 846.59,441.93 850.98,441.94 855.38,441.96 859.77,441.99 864.16,442.05 868.55,442.11 872.94,442.13 877.34,442.15 881.73,442.18 886.12,442.21 890.51,442.23 894.90,442.23 899.30,442.21 903.69,442.19 908.08,442.23 912.47,442.27 916.86,442.29 921.26,442.31 925.65,442.29 930.04,442.28 934.43,442.34 938.82,442.38 943.22,442.38 947.61,442.38 952.00,442.39"/>
<polyline fill="none" stroke="#555555" stroke-width="1.7" points="78.00,550.05 82.39,549.99 86.78,549.93 91.18,549.84 95.57,549.77 99.96,549.83 104.35,549.87 108.74,549.85 113.14,549.82 117.53,549.75 121.92,549.79 126.31,549.87 130.70,549.92 135.10,549.88 139.49,549.87 143.88,550.08 148.27,550.26 152.66,550.33 157.06,550.36 161.45,550.22 165.84,550.26 170.23,550.30 174.62,550.31 179.02,550.19 183.41,550.06 187.80,550.42 192.19,550.67 196.58,550.52 200.97,550.39 205.37,550.32 209.76,551.56 214.15,552.15 218.54,552.58 222.93,552.36 227.33,551.92 231.72,554.85 236.11,557.29 240.50,557.88 244.89,557.83 249.29,555.39 253.68,560.74 258.07,563.02 262.46,564.37 266.85,562.25 271.25,559.25 275.64,558.79 280.03,558.10 284.42,556.54 288.81,555.41 293.21,555.90 297.60,550.45 301.99,549.68 306.38,549.41 310.77,551.00 315.17,553.73 319.56,552.43 323.95,551.14 328.34,549.86 332.73,549.49 337.13,552.56 341.52,551.91 345.91,550.07 350.30,548.81 354.69,549.80 359.09,550.72 363.48,550.31 367.87,550.06 372.26,550.41 376.65,550.49 381.05,549.56 385.44,548.75 389.83,549.89 394.22,550.55 398.61,549.41 403.01,548.51 407.40,548.26 411.79,548.17 416.18,548.71 420.57,549.26 424.96,549.81 429.36,549.90 433.75,550.07 438.14,550.03 442.53,549.20 446.92,548.78 451.32,548.88 455.71,549.07 460.10,549.62 464.49,550.36 468.88,551.78 473.28,549.65 477.67,550.27 482.06,551.58 486.45,555.54 490.84,561.03 495.24,555.06 499.63,552.40 504.02,562.23 508.41,573.47 512.80,590.07 517.20,597.89 521.59,598.50 525.98,596.08 530.37,582.18 534.76,566.81 539.16,566.85 543.55,566.17 547.94,562.76 552.33,558.91 556.72,553.44 561.12,553.99 565.51,553.64 569.90,553.20 574.29,552.35 578.68,551.37 583.08,551.39 587.47,551.36 591.86,551.11 596.25,550.79 600.64,550.23 605.04,550.13 609.43,549.98 613.82,549.82 618.21,549.62 622.60,549.41 626.99,549.24 631.39,549.12 635.78,549.16 640.17,549.17 644.56,549.04 648.95,548.97 653.35,548.93 657.74,548.87 662.13,548.76 666.52,548.68 670.91,548.71 675.31,548.71 679.70,548.63 684.09,548.57 688.48,548.57 692.87,548.57 697.27,548.59 701.66,548.59 706.05,548.51 710.44,548.46 714.83,548.52 719.23,548.56 723.62,548.51 728.01,548.48 732.40,548.50 736.79,548.48 741.19,548.56 745.58,548.62 749.97,548.61 754.36,548.60 758.75,548.68 763.15,548.73 767.54,548.67 771.93,548.64 776.32,548.68 780.71,548.74 785.11,548.69 789.50,548.64 793.89,548.59 798.28,548.56 802.67,548.60 807.07,548.64 811.46,548.63 815.85,548.63 820.24,548.66 824.63,548.70 829.03,548.69 833.42,548.69 837.81,548.73 842.20,548.76 846.59,548.75 850.98,548.74 855.38,548.75 859.77,548.77 864.16,548.82 868.55,548.87 872.94,548.89 877.34,548.91 881.73,548.94 886.12,548.97 890.51,548.96 894.90,548.95 899.30,548.91 903.69,548.87 908.08,548.89 912.47,548.88 916.86,548.86 921.26,548.83 925.65,548.77 930.04,548.72 934.43,548.76 938.82,548.79 943.22,548.77 947.61,548.75 952.00,548.74"/>
<text x="90" y="78" font-family="Arial" font-size="12" fill="#0b5cad">MCC measured</text>
<text x="198" y="78" font-family="Arial" font-size="12" fill="#c65f00">RayStation CSV</text>
<text x="78" y="471" font-family="Arial" font-size="12">CSV-MCC difference in percentage points</text>
<text x="515.0" y="655" text-anchor="middle" font-family="Arial" font-size="13">Aligned cross-plane x (mm)</text>
<text x="18" y="250.5" transform="rotate(-90 18 250.5)" text-anchor="middle" font-family="Arial" font-size="13">Relative dose</text>
</svg>