<svg xmlns="http://www.w3.org/2000/svg" width="900" height="560" viewBox="0 0 900 560">
<rect width="100%" height="100%" fill="white"/>
<text x="78" y="30" font-family="Arial" font-size="18" font-weight="700">9MeV_6_two_onaxis: central cross-plane profile at y = 0.0 mm</text>
<rect x="78" y="64" width="798" height="424" fill="#fafafa" stroke="#222" stroke-width="1"/>
<line x1="78" x2="876" y1="488.00" y2="488.00" stroke="#dddddd" stroke-width="1"/>
<text x="68" y="492.00" text-anchor="end" font-family="Arial" font-size="11">0.0</text>
<line x1="78" x2="876" y1="409.52" y2="409.52" stroke="#dddddd" stroke-width="1"/>
<text x="68" y="413.52" text-anchor="end" font-family="Arial" font-size="11">0.2</text>
<line x1="78" x2="876" y1="331.04" y2="331.04" stroke="#dddddd" stroke-width="1"/>
<text x="68" y="335.04" text-anchor="end" font-family="Arial" font-size="11">0.4</text>
<line x1="78" x2="876" y1="252.56" y2="252.56" stroke="#dddddd" stroke-width="1"/>
<text x="68" y="256.56" text-anchor="end" font-family="Arial" font-size="11">0.6</text>
<line x1="78" x2="876" y1="174.08" y2="174.08" stroke="#dddddd" stroke-width="1"/>
<text x="68" y="178.08" text-anchor="end" font-family="Arial" font-size="11">0.8</text>
<line x1="78" x2="876" y1="95.60" y2="95.60" stroke="#dddddd" stroke-width="1"/>
<text x="68" y="99.60" text-anchor="end" font-family="Arial" font-size="11">1.0</text>
<line x1="78.00" x2="78.00" y1="64" y2="488" stroke="#eeeeee" stroke-width="1"/>
<text x="78.00" y="508" text-anchor="middle" font-family="Arial" font-size="11">-125</text>
<line x1="211.00" x2="211.00" y1="64" y2="488" stroke="#eeeeee" stroke-width="1"/>
<text x="211.00" y="508" text-anchor="middle" font-family="Arial" font-size="11">-83</text>
<line x1="344.00" x2="344.00" y1="64" y2="488" stroke="#eeeeee" stroke-width="1"/>
<text x="344.00" y="508" text-anchor="middle" font-family="Arial" font-size="11">-42</text>
<line x1="477.00" x2="477.00" y1="64" y2="488" stroke="#eeeeee" stroke-width="1"/>
<text x="477.00" y="508" text-anchor="middle" font-family="Arial" font-size="11">0</text>
<line x1="610.00" x2="610.00" y1="64" y2="488" stroke="#eeeeee" stroke-width="1"/>
<text x="610.00" y="508" text-anchor="middle" font-family="Arial" font-size="11">42</text>
<line x1="743.00" x2="743.00" y1="64" y2="488" stroke="#eeeeee" stroke-width="1"/>
<text x="743.00" y="508" text-anchor="middle" font-family="Arial" font-size="11">83</text>
<line x1="876.00" x2="876.00" y1="64" y2="488" stroke="#eeeeee" stroke-width="1"/>
<text x="876.00" y="508" text-anchor="middle" font-family="Arial" font-size="11">125</text>
<rect x="387.53" y="64" width="83.07" height="424" fill="#f2c94c" opacity="0.18"/>
<line x1="430.46" x2="430.46" y1="64" y2="488" stroke="#1f7a1f" stroke-dasharray="8 4" stroke-width="1.3"/>
<text x="434.46" y="80" font-family="Arial" font-size="10" fill="#1f7a1f">100% norm</text>
<line x1="78" x2="876" y1="291.80" y2="291.80" stroke="#555" stroke-dasharray="6 5"/>
<line x1="377.15" x2="377.15" y1="64" y2="488" stroke="#444" stroke-dasharray="6 5"/>
<text x="381.15" y="480" font-family="Arial" font-size="10">50%</text>
<line x1="480.99" x2="480.99" y1="64" y2="488" stroke="#444" stroke-dasharray="6 5"/>
<text x="484.99" y="480" font-family="Arial" font-size="10">50%</text>
<line x1="357.17" x2="357.17" y1="64" y2="488" stroke="#444" stroke-dasharray="2 4"/>
<text x="361.17" y="480" font-family="Arial" font-size="10">20%</text>
<line x1="394.80" x2="394.80" y1="64" y2="488" stroke="#444" stroke-dasharray="2 4"/>
<text x="398.80" y="480" font-family="Arial" font-size="10">80%</text>
<line x1="466.13" x2="466.13" y1="64" y2="488" stroke="#444" stroke-dasharray="2 4"/>
<text x="470.13" y="480" font-family="Arial" font-size="10">80%</text>
<line x1="495.87" x2="495.87" y1="64" y2="488" stroke="#444" stroke-dasharray="2 4"/>
<text x="499.87" y="480" font-family="Arial" font-size="10">20%</text>
<line x1="357.17" x2="394.80" y1="174.08" y2="174.08" stroke="#8a4f00" stroke-width="2"/>
<line x1="357.17" x2="357.17" y1="169.08" y2="179.08" stroke="#8a4f00" stroke-width="2"/>
<line x1="394.80" x2="394.80" y1="169.08" y2="179.08" stroke="#8a4f00" stroke-width="2"/>
<text x="375.98" y="162.08" text-anchor="middle" font-family="Arial" font-size="11" fill="#8a4f00">Left penumbra: 11.8 mm</text>
<line x1="466.13" x2="495.87" y1="174.08" y2="174.08" stroke="#8a4f00" stroke-width="2"/>
<line x1="466.13" x2="466.13" y1="169.08" y2="179.08" stroke="#8a4f00" stroke-width="2"/>
<line x1="495.87" x2="495.87" y1="169.08" y2="179.08" stroke="#8a4f00" stroke-width="2"/>
<text x="481.00" y="162.08" text-anchor="middle" font-family="Arial" font-size="11" fill="#8a4f00">Right penumbra: 9.3 mm</text>
<polyline fill="none" stroke="#0b5cad" stroke-width="2" points="78.00,486.78 93.96,486.71 109.92,486.54 125.88,486.43 141.84,486.32 157.80,486.18 173.76,486.06 189.72,485.85 205.68,485.56 221.64,485.12 237.60,484.56 253.56,484.01 269.52,483.26 285.48,481.64 301.44,479.23 317.40,474.63 333.36,464.99 349.32,440.28 365.28,377.75 381.24,262.16 397.20,158.46 413.16,109.72 429.12,95.41 445.08,97.71 461.04,135.71 477.00,255.99 492.96,399.32 508.92,455.25 524.88,472.28 540.84,478.65 556.80,481.47 572.76,483.06 588.72,484.46 604.68,485.25 620.64,485.72 636.60,485.87 652.56,485.91 668.52,486.03 684.48,486.35 700.44,486.54 716.40,486.75 732.36,486.98 748.32,487.26 764.28,487.39 780.24,487.49 796.20,487.59 812.16,487.53 828.12,487.52 844.08,487.44 860.04,487.30 876.00,487.17"/>
<circle cx="78.00" cy="486.78" r="2.4" fill="#0b5cad"/>
<circle cx="93.96" cy="486.71" r="2.4" fill="#0b5cad"/>
<circle cx="109.92" cy="486.54" r="2.4" fill="#0b5cad"/>
<circle cx="125.88" cy="486.43" r="2.4" fill="#0b5cad"/>
<circle cx="141.84" cy="486.32" r="2.4" fill="#0b5cad"/>
<circle cx="157.80" cy="486.18" r="2.4" fill="#0b5cad"/>
<circle cx="173.76" cy="486.06" r="2.4" fill="#0b5cad"/>
<circle cx="189.72" cy="485.85" r="2.4" fill="#0b5cad"/>
<circle cx="205.68" cy="485.56" r="2.4" fill="#0b5cad"/>
<circle cx="221.64" cy="485.12" r="2.4" fill="#0b5cad"/>
<circle cx="237.60" cy="484.56" r="2.4" fill="#0b5cad"/>
<circle cx="253.56" cy="484.01" r="2.4" fill="#0b5cad"/>
<circle cx="269.52" cy="483.26" r="2.4" fill="#0b5cad"/>
<circle cx="285.48" cy="481.64" r="2.4" fill="#0b5cad"/>
<circle cx="301.44" cy="479.23" r="2.4" fill="#0b5cad"/>
<circle cx="317.40" cy="474.63" r="2.4" fill="#0b5cad"/>
<circle cx="333.36" cy="464.99" r="2.4" fill="#0b5cad"/>
<circle cx="349.32" cy="440.28" r="2.4" fill="#0b5cad"/>
<circle cx="365.28" cy="377.75" r="2.4" fill="#0b5cad"/>
<circle cx="381.24" cy="262.16" r="2.4" fill="#0b5cad"/>
<circle cx="397.20" cy="158.46" r="2.4" fill="#0b5cad"/>
<circle cx="413.16" cy="109.72" r="2.4" fill="#0b5cad"/>
<circle cx="429.12" cy="95.41" r="2.4" fill="#0b5cad"/>
<circle cx="445.08" cy="97.71" r="2.4" fill="#0b5cad"/>
<circle cx="461.04" cy="135.71" r="2.4" fill="#0b5cad"/>
<circle cx="477.00" cy="255.99" r="2.4" fill="#0b5cad"/>
<circle cx="492.96" cy="399.32" r="2.4" fill="#0b5cad"/>
<circle cx="508.92" cy="455.25" r="2.4" fill="#0b5cad"/>
<circle cx="524.88" cy="472.28" r="2.4" fill="#0b5cad"/>
<circle cx="540.84" cy="478.65" r="2.4" fill="#0b5cad"/>
<circle cx="556.80" cy="481.47" r="2.4" fill="#0b5cad"/>
<circle cx="572.76" cy="483.06" r="2.4" fill="#0b5cad"/>
<circle cx="588.72" cy="484.46" r="2.4" fill="#0b5cad"/>
<circle cx="604.68" cy="485.25" r="2.4" fill="#0b5cad"/>
<circle cx="620.64" cy="485.72" r="2.4" fill="#0b5cad"/>
<circle cx="636.60" cy="485.87" r="2.4" fill="#0b5cad"/>
<circle cx="652.56" cy="485.91" r="2.4" fill="#0b5cad"/>
<circle cx="668.52" cy="486.03" r="2.4" fill="#0b5cad"/>
<circle cx="684.48" cy="486.35" r="2.4" fill="#0b5cad"/>
<circle cx="700.44" cy="486.54" r="2.4" fill="#0b5cad"/>
<circle cx="716.40" cy="486.75" r="2.4" fill="#0b5cad"/>
<circle cx="732.36" cy="486.98" r="2.4" fill="#0b5cad"/>
<circle cx="748.32" cy="487.26" r="2.4" fill="#0b5cad"/>
<circle cx="764.28" cy="487.39" r="2.4" fill="#0b5cad"/>
<circle cx="780.24" cy="487.49" r="2.4" fill="#0b5cad"/>
<circle cx="796.20" cy="487.59" r="2.4" fill="#0b5cad"/>
<circle cx="812.16" cy="487.53" r="2.4" fill="#0b5cad"/>
<circle cx="828.12" cy="487.52" r="2.4" fill="#0b5cad"/>
<circle cx="844.08" cy="487.44" r="2.4" fill="#0b5cad"/>
<circle cx="860.04" cy="487.30" r="2.4" fill="#0b5cad"/>
<circle cx="876.00" cy="487.17" r="2.4" fill="#0b5cad"/>
<text x="78" y="50" font-family="Arial" font-size="12">FWHM 32.5 mm | Flatness 8.73% | Symmetry 5.97%</text>
<text x="477.0" y="538" text-anchor="middle" font-family="Arial" font-size="13">Cross-plane x (mm)</text>
<text x="18" y="276.0" transform="rotate(-90 18 276.0)" text-anchor="middle" font-family="Arial" font-size="13">Relative dose, normalized at midpoint of 80% crossings</text>
</svg>