<svg xmlns="http://www.w3.org/2000/svg" width="900" height="560" viewBox="0 0 900 560">
<rect width="100%" height="100%" fill="white"/>
<text x="78" y="30" font-family="Arial" font-size="18" font-weight="700">9MeV_10_two_2cmoff: central cross-plane profile at y = 0.0 mm</text>
<rect x="78" y="64" width="798" height="424" fill="#fafafa" stroke="#222" stroke-width="1"/>
<line x1="78" x2="876" y1="488.00" y2="488.00" stroke="#dddddd" stroke-width="1"/>
<text x="68" y="492.00" text-anchor="end" font-family="Arial" font-size="11">0.0</text>
<line x1="78" x2="876" y1="409.73" y2="409.73" stroke="#dddddd" stroke-width="1"/>
<text x="68" y="413.73" text-anchor="end" font-family="Arial" font-size="11">0.2</text>
<line x1="78" x2="876" y1="331.45" y2="331.45" stroke="#dddddd" stroke-width="1"/>
<text x="68" y="335.45" text-anchor="end" font-family="Arial" font-size="11">0.4</text>
<line x1="78" x2="876" y1="253.18" y2="253.18" stroke="#dddddd" stroke-width="1"/>
<text x="68" y="257.18" text-anchor="end" font-family="Arial" font-size="11">0.6</text>
<line x1="78" x2="876" y1="174.90" y2="174.90" stroke="#dddddd" stroke-width="1"/>
<text x="68" y="178.90" text-anchor="end" font-family="Arial" font-size="11">0.8</text>
<line x1="78" x2="876" y1="96.63" y2="96.63" stroke="#dddddd" stroke-width="1"/>
<text x="68" y="100.63" text-anchor="end" font-family="Arial" font-size="11">1.0</text>
<line x1="78.00" x2="78.00" y1="64" y2="488" stroke="#eeeeee" stroke-width="1"/>
<text x="78.00" y="508" text-anchor="middle" font-family="Arial" font-size="11">-125</text>
<line x1="211.00" x2="211.00" y1="64" y2="488" stroke="#eeeeee" stroke-width="1"/>
<text x="211.00" y="508" text-anchor="middle" font-family="Arial" font-size="11">-83</text>
<line x1="344.00" x2="344.00" y1="64" y2="488" stroke="#eeeeee" stroke-width="1"/>
<text x="344.00" y="508" text-anchor="middle" font-family="Arial" font-size="11">-42</text>
<line x1="477.00" x2="477.00" y1="64" y2="488" stroke="#eeeeee" stroke-width="1"/>
<text x="477.00" y="508" text-anchor="middle" font-family="Arial" font-size="11">0</text>
<line x1="610.00" x2="610.00" y1="64" y2="488" stroke="#eeeeee" stroke-width="1"/>
<text x="610.00" y="508" text-anchor="middle" font-family="Arial" font-size="11">42</text>
<line x1="743.00" x2="743.00" y1="64" y2="488" stroke="#eeeeee" stroke-width="1"/>
<text x="743.00" y="508" text-anchor="middle" font-family="Arial" font-size="11">83</text>
<line x1="876.00" x2="876.00" y1="64" y2="488" stroke="#eeeeee" stroke-width="1"/>
<text x="876.00" y="508" text-anchor="middle" font-family="Arial" font-size="11">125</text>
<rect x="331.40" y="64" width="192.04" height="424" fill="#f2c94c" opacity="0.18"/>
<line x1="429.36" x2="429.36" y1="64" y2="488" stroke="#1f7a1f" stroke-dasharray="8 4" stroke-width="1.3"/>
<text x="433.36" y="80" font-family="Arial" font-size="10" fill="#1f7a1f">100% norm</text>
<line x1="78" x2="876" y1="292.31" y2="292.31" stroke="#555" stroke-dasharray="6 5"/>
<line x1="307.40" x2="307.40" y1="64" y2="488" stroke="#444" stroke-dasharray="6 5"/>
<text x="311.40" y="480" font-family="Arial" font-size="10">50%</text>
<line x1="547.45" x2="547.45" y1="64" y2="488" stroke="#444" stroke-dasharray="6 5"/>
<text x="551.45" y="480" font-family="Arial" font-size="10">50%</text>
<line x1="287.08" x2="287.08" y1="64" y2="488" stroke="#444" stroke-dasharray="2 4"/>
<text x="291.08" y="480" font-family="Arial" font-size="10">20%</text>
<line x1="327.74" x2="327.74" y1="64" y2="488" stroke="#444" stroke-dasharray="2 4"/>
<text x="331.74" y="480" font-family="Arial" font-size="10">80%</text>
<line x1="530.99" x2="530.99" y1="64" y2="488" stroke="#444" stroke-dasharray="2 4"/>
<text x="534.99" y="480" font-family="Arial" font-size="10">80%</text>
<line x1="564.41" x2="564.41" y1="64" y2="488" stroke="#444" stroke-dasharray="2 4"/>
<text x="568.41" y="480" font-family="Arial" font-size="10">20%</text>
<line x1="287.08" x2="327.74" y1="174.90" y2="174.90" stroke="#8a4f00" stroke-width="2"/>
<line x1="287.08" x2="287.08" y1="169.90" y2="179.90" stroke="#8a4f00" stroke-width="2"/>
<line x1="327.74" x2="327.74" y1="169.90" y2="179.90" stroke="#8a4f00" stroke-width="2"/>
<text x="307.41" y="162.90" text-anchor="middle" font-family="Arial" font-size="11" fill="#8a4f00">Left penumbra: 12.7 mm</text>
<line x1="530.99" x2="564.41" y1="174.90" y2="174.90" stroke="#8a4f00" stroke-width="2"/>
<line x1="530.99" x2="530.99" y1="169.90" y2="179.90" stroke="#8a4f00" stroke-width="2"/>
<line x1="564.41" x2="564.41" y1="169.90" y2="179.90" stroke="#8a4f00" stroke-width="2"/>
<text x="547.70" y="162.90" text-anchor="middle" font-family="Arial" font-size="11" fill="#8a4f00">Right penumbra: 10.5 mm</text>
<polyline fill="none" stroke="#0b5cad" stroke-width="2" points="78.00,485.58 93.96,485.38 109.92,485.00 125.88,484.57 141.84,484.45 157.80,484.25 173.76,484.04 189.72,483.36 205.68,482.31 221.64,480.71 237.60,477.72 253.56,471.31 269.52,456.27 285.48,418.13 301.44,334.12 317.40,222.11 333.36,149.22 349.32,119.64 365.28,108.04 381.24,102.75 397.20,99.80 413.16,97.78 429.12,96.65 445.08,95.41 461.04,95.48 477.00,95.41 492.96,99.40 508.92,109.24 524.88,138.84 540.84,233.04 556.80,376.11 572.76,446.63 588.72,468.80 604.68,477.17 620.64,480.83 636.60,482.58 652.56,484.01 668.52,484.90 684.48,485.42 700.44,485.68 716.40,485.82 732.36,485.99 748.32,486.05 764.28,486.25 780.24,486.49 796.20,486.69 812.16,486.74 828.12,486.78 844.08,486.93 860.04,487.14 876.00,487.20"/>
<circle cx="78.00" cy="485.58" r="2.4" fill="#0b5cad"/>
<circle cx="93.96" cy="485.38" r="2.4" fill="#0b5cad"/>
<circle cx="109.92" cy="485.00" r="2.4" fill="#0b5cad"/>
<circle cx="125.88" cy="484.57" r="2.4" fill="#0b5cad"/>
<circle cx="141.84" cy="484.45" r="2.4" fill="#0b5cad"/>
<circle cx="157.80" cy="484.25" r="2.4" fill="#0b5cad"/>
<circle cx="173.76" cy="484.04" r="2.4" fill="#0b5cad"/>
<circle cx="189.72" cy="483.36" r="2.4" fill="#0b5cad"/>
<circle cx="205.68" cy="482.31" r="2.4" fill="#0b5cad"/>
<circle cx="221.64" cy="480.71" r="2.4" fill="#0b5cad"/>
<circle cx="237.60" cy="477.72" r="2.4" fill="#0b5cad"/>
<circle cx="253.56" cy="471.31" r="2.4" fill="#0b5cad"/>
<circle cx="269.52" cy="456.27" r="2.4" fill="#0b5cad"/>
<circle cx="285.48" cy="418.13" r="2.4" fill="#0b5cad"/>
<circle cx="301.44" cy="334.12" r="2.4" fill="#0b5cad"/>
<circle cx="317.40" cy="222.11" r="2.4" fill="#0b5cad"/>
<circle cx="333.36" cy="149.22" r="2.4" fill="#0b5cad"/>
<circle cx="349.32" cy="119.64" r="2.4" fill="#0b5cad"/>
<circle cx="365.28" cy="108.04" r="2.4" fill="#0b5cad"/>
<circle cx="381.24" cy="102.75" r="2.4" fill="#0b5cad"/>
<circle cx="397.20" cy="99.80" r="2.4" fill="#0b5cad"/>
<circle cx="413.16" cy="97.78" r="2.4" fill="#0b5cad"/>
<circle cx="429.12" cy="96.65" r="2.4" fill="#0b5cad"/>
<circle cx="445.08" cy="95.41" r="2.4" fill="#0b5cad"/>
<circle cx="461.04" cy="95.48" r="2.4" fill="#0b5cad"/>
<circle cx="477.00" cy="95.41" r="2.4" fill="#0b5cad"/>
<circle cx="492.96" cy="99.40" r="2.4" fill="#0b5cad"/>
<circle cx="508.92" cy="109.24" r="2.4" fill="#0b5cad"/>
<circle cx="524.88" cy="138.84" r="2.4" fill="#0b5cad"/>
<circle cx="540.84" cy="233.04" r="2.4" fill="#0b5cad"/>
<circle cx="556.80" cy="376.11" r="2.4" fill="#0b5cad"/>
<circle cx="572.76" cy="446.63" r="2.4" fill="#0b5cad"/>
<circle cx="588.72" cy="468.80" r="2.4" fill="#0b5cad"/>
<circle cx="604.68" cy="477.17" r="2.4" fill="#0b5cad"/>
<circle cx="620.64" cy="480.83" r="2.4" fill="#0b5cad"/>
<circle cx="636.60" cy="482.58" r="2.4" fill="#0b5cad"/>
<circle cx="652.56" cy="484.01" r="2.4" fill="#0b5cad"/>
<circle cx="668.52" cy="484.90" r="2.4" fill="#0b5cad"/>
<circle cx="684.48" cy="485.42" r="2.4" fill="#0b5cad"/>
<circle cx="700.44" cy="485.68" r="2.4" fill="#0b5cad"/>
<circle cx="716.40" cy="485.82" r="2.4" fill="#0b5cad"/>
<circle cx="732.36" cy="485.99" r="2.4" fill="#0b5cad"/>
<circle cx="748.32" cy="486.05" r="2.4" fill="#0b5cad"/>
<circle cx="764.28" cy="486.25" r="2.4" fill="#0b5cad"/>
<circle cx="780.24" cy="486.49" r="2.4" fill="#0b5cad"/>
<circle cx="796.20" cy="486.69" r="2.4" fill="#0b5cad"/>
<circle cx="812.16" cy="486.74" r="2.4" fill="#0b5cad"/>
<circle cx="828.12" cy="486.78" r="2.4" fill="#0b5cad"/>
<circle cx="844.08" cy="486.93" r="2.4" fill="#0b5cad"/>
<circle cx="860.04" cy="487.14" r="2.4" fill="#0b5cad"/>
<circle cx="876.00" cy="487.20" r="2.4" fill="#0b5cad"/>
<text x="78" y="50" font-family="Arial" font-size="12">FWHM 75.2 mm | Flatness 7.36% | Symmetry 4.26%</text>
<text x="477.0" y="538" text-anchor="middle" font-family="Arial" font-size="13">Cross-plane x (mm)</text>
<text x="18" y="276.0" transform="rotate(-90 18 276.0)" text-anchor="middle" font-family="Arial" font-size="13">Relative dose, normalized at midpoint of 80% crossings</text>
</svg>