<svg xmlns="http://www.w3.org/2000/svg" width="980" height="660" viewBox="0 0 980 660">
<rect width="100%" height="100%" fill="white"/>
<text x="78" y="28" font-family="Arial" font-size="18" font-weight="700">12MeV_10_one2cm_two5mmout</text>
<text x="78" y="48" font-family="Arial" font-size="12">CSV shift 0.334 mm | RMS >=10% 1.369 percentage points</text>
<rect x="78" y="58" width="874" height="385" fill="#fbfbfb" stroke="#222"/>
<rect x="78" y="491" width="874" height="115" fill="#fbfbfb" stroke="#222"/>
<line x1="78" x2="952" y1="443.00" y2="443.00" stroke="#e1e1e1"/>
<text x="68" y="447.00" text-anchor="end" font-family="Arial" font-size="11">0.0</text>
<line x1="78" x2="952" y1="371.97" y2="371.97" stroke="#e1e1e1"/>
<text x="68" y="375.97" text-anchor="end" font-family="Arial" font-size="11">0.2</text>
<line x1="78" x2="952" y1="300.95" y2="300.95" stroke="#e1e1e1"/>
<text x="68" y="304.95" text-anchor="end" font-family="Arial" font-size="11">0.4</text>
<line x1="78" x2="952" y1="229.92" y2="229.92" stroke="#e1e1e1"/>
<text x="68" y="233.92" text-anchor="end" font-family="Arial" font-size="11">0.6</text>
<line x1="78" x2="952" y1="158.90" y2="158.90" stroke="#e1e1e1"/>
<text x="68" y="162.90" text-anchor="end" font-family="Arial" font-size="11">0.8</text>
<line x1="78" x2="952" y1="87.87" y2="87.87" stroke="#e1e1e1"/>
<text x="68" y="91.87" text-anchor="end" font-family="Arial" font-size="11">1.0</text>
<line x1="78.00" x2="78.00" y1="58" y2="443" stroke="#eeeeee"/>
<line x1="78.00" x2="78.00" y1="491" y2="606" stroke="#eeeeee"/>
<text x="78.00" y="636" text-anchor="middle" font-family="Arial" font-size="11">-99</text>
<line x1="187.25" x2="187.25" y1="58" y2="443" stroke="#eeeeee"/>
<line x1="187.25" x2="187.25" y1="491" y2="606" stroke="#eeeeee"/>
<text x="187.25" y="636" text-anchor="middle" font-family="Arial" font-size="11">-74</text>
<line x1="296.50" x2="296.50" y1="58" y2="443" stroke="#eeeeee"/>
<line x1="296.50" x2="296.50" y1="491" y2="606" stroke="#eeeeee"/>
<text x="296.50" y="636" text-anchor="middle" font-family="Arial" font-size="11">-49</text>
<line x1="405.75" x2="405.75" y1="58" y2="443" stroke="#eeeeee"/>
<line x1="405.75" x2="405.75" y1="491" y2="606" stroke="#eeeeee"/>
<text x="405.75" y="636" text-anchor="middle" font-family="Arial" font-size="11">-24</text>
<line x1="515.00" x2="515.00" y1="58" y2="443" stroke="#eeeeee"/>
<line x1="515.00" x2="515.00" y1="491" y2="606" stroke="#eeeeee"/>
<text x="515.00" y="636" text-anchor="middle" font-family="Arial" font-size="11">0</text>
<line x1="624.25" x2="624.25" y1="58" y2="443" stroke="#eeeeee"/>
<line x1="624.25" x2="624.25" y1="491" y2="606" stroke="#eeeeee"/>
<text x="624.25" y="636" text-anchor="middle" font-family="Arial" font-size="11">25</text>
<line x1="733.50" x2="733.50" y1="58" y2="443" stroke="#eeeeee"/>
<line x1="733.50" x2="733.50" y1="491" y2="606" stroke="#eeeeee"/>
<text x="733.50" y="636" text-anchor="middle" font-family="Arial" font-size="11">50</text>
<line x1="842.75" x2="842.75" y1="58" y2="443" stroke="#eeeeee"/>
<line x1="842.75" x2="842.75" y1="491" y2="606" stroke="#eeeeee"/>
<text x="842.75" y="636" text-anchor="middle" font-family="Arial" font-size="11">75</text>
<line x1="952.00" x2="952.00" y1="58" y2="443" stroke="#eeeeee"/>
<line x1="952.00" x2="952.00" y1="491" y2="606" stroke="#eeeeee"/>
<text x="952.00" y="636" text-anchor="middle" font-family="Arial" font-size="11">100</text>
<line x1="78" x2="952" y1="606.00" y2="606.00" stroke="#e1e1e1"/>
<text x="68" y="610.00" text-anchor="end" font-family="Arial" font-size="11">-4.8</text>
<line x1="78" x2="952" y1="548.50" y2="548.50" stroke="#999999"/>
<text x="68" y="552.50" text-anchor="end" font-family="Arial" font-size="11">0.0</text>
<line x1="78" x2="952" y1="491.00" y2="491.00" stroke="#e1e1e1"/>
<text x="68" y="495.00" text-anchor="end" font-family="Arial" font-size="11">4.8</text>
<line x1="278.53" x2="278.53" y1="58" y2="443" stroke="#0b5cad" opacity="0.45"/>
<line x1="605.04" x2="605.04" y1="58" y2="443" stroke="#0b5cad" opacity="0.45"/>
<line x1="280.02" x2="280.02" y1="58" y2="443" stroke="#c65f00" opacity="0.45" stroke-dasharray="6 5"/>
<line x1="603.08" x2="603.08" y1="58" y2="443" stroke="#c65f00" opacity="0.45" stroke-dasharray="6 5"/>
<polyline fill="none" stroke="#0b5cad" stroke-width="2.2" points="78.00,439.25 82.39,439.11 86.78,438.97 91.18,438.83 95.57,438.69 99.96,438.50 104.35,438.31 108.74,438.12 113.14,437.93 117.53,437.74 121.92,437.51 126.31,437.28 130.70,437.06 135.10,436.83 139.49,436.60 143.88,436.26 148.27,435.92 152.66,435.58 157.06,435.24 161.45,434.89 165.84,434.31 170.23,433.73 174.62,433.14 179.02,432.56 183.41,431.97 187.80,430.82 192.19,429.66 196.58,428.51 200.97,427.35 205.37,426.20 209.76,423.47 214.15,420.75 218.54,418.02 222.93,415.30 227.33,412.57 231.72,405.51 236.11,398.44 240.50,391.38 244.89,384.31 249.29,377.25 253.68,361.60 258.07,345.96 262.46,330.31 266.85,314.66 271.25,299.02 275.64,278.78 280.03,258.55 284.42,238.31 288.81,218.08 293.21,197.84 297.60,185.24 301.99,172.63 306.38,160.03 310.77,147.42 315.17,134.82 319.56,129.79 323.95,124.77 328.34,119.75 332.73,114.73 337.13,109.71 341.52,107.67 345.91,105.63 350.30,103.60 354.69,101.56 359.09,99.52 363.48,98.51 367.87,97.50 372.26,96.48 376.65,95.47 381.05,94.46 385.44,93.84 389.83,93.23 394.22,92.61 398.61,92.00 403.01,91.38 407.40,90.94 411.79,90.50 416.18,90.06 420.57,89.62 424.96,89.18 429.36,88.89 433.75,88.59 438.14,88.30 442.53,88.01 446.92,87.72 451.32,87.48 455.71,87.24 460.10,87.00 464.49,86.76 468.88,86.52 473.28,86.53 477.67,86.55 482.06,86.56 486.45,86.58 490.84,86.59 495.24,86.67 499.63,86.75 504.02,86.83 508.41,86.91 512.80,86.98 517.20,87.87 521.59,88.76 525.98,89.65 530.37,90.54 534.76,91.43 539.16,93.77 543.55,96.12 547.94,98.47 552.33,100.81 556.72,103.16 561.12,110.84 565.51,118.51 569.90,126.19 574.29,133.86 578.68,141.54 583.08,161.77 587.47,182.01 591.86,202.24 596.25,222.47 600.64,242.71 605.04,265.40 609.43,288.09 613.82,310.78 618.21,333.47 622.60,356.16 626.99,366.30 631.39,376.44 635.78,386.58 640.17,396.72 644.56,406.86 648.95,410.17 653.35,413.48 657.74,416.79 662.13,420.11 666.52,423.42 670.91,424.76 675.31,426.10 679.70,427.44 684.09,428.79 688.48,430.13 692.87,430.81 697.27,431.49 701.66,432.18 706.05,432.86 710.44,433.55 714.83,433.95 719.23,434.36 723.62,434.76 728.01,435.17 732.40,435.58 736.79,435.95 741.19,436.32 745.58,436.70 749.97,437.07 754.36,437.44 758.75,437.69 763.15,437.95 767.54,438.20 771.93,438.45 776.32,438.70 780.71,438.84 785.11,438.98 789.50,439.11 793.89,439.25 798.28,439.39 802.67,439.47 807.07,439.56 811.46,439.65 815.85,439.73 820.24,439.82 824.63,439.85 829.03,439.87 833.42,439.90 837.81,439.93 842.20,439.95 846.59,439.99 850.98,440.03 855.38,440.07 859.77,440.12 864.16,440.16 868.55,440.19 872.94,440.22 877.34,440.25 881.73,440.28 886.12,440.31 890.51,440.36 894.90,440.41 899.30,440.46 903.69,440.51 908.08,440.56 912.47,440.64 916.86,440.72 921.26,440.80 925.65,440.88 930.04,440.96 934.43,441.04 938.82,441.12 943.22,441.20 947.61,441.28 952.00,441.35"/>
<polyline fill="none" stroke="#c65f00" stroke-width="2.0" points="78.00,441.68 82.39,441.29 86.78,440.93 91.18,440.67 95.57,440.43 99.96,440.28 104.35,440.16 108.74,440.12 113.14,440.01 117.53,439.74 121.92,439.48 126.31,439.21 130.70,438.92 135.10,438.54 139.49,438.19 143.88,437.86 148.27,437.54 152.66,437.20 157.06,436.84 161.45,436.40 165.84,435.88 170.23,435.11 174.62,434.35 179.02,433.62 183.41,432.94 187.80,432.39 192.19,431.57 196.58,430.03 200.97,428.48 205.37,426.92 209.76,425.21 214.15,423.09 218.54,420.70 222.93,417.61 227.33,414.16 231.72,409.76 236.11,404.90 240.50,398.80 244.89,391.79 249.29,382.30 253.68,371.94 258.07,359.20 262.46,345.00 266.85,326.81 271.25,307.81 275.64,286.61 280.03,265.38 284.42,244.07 288.81,223.70 293.21,205.88 297.60,188.78 301.99,173.68 306.38,159.49 310.77,147.76 315.17,137.33 319.56,130.49 323.95,124.07 328.34,118.82 332.73,114.38 337.13,112.15 341.52,109.91 345.91,107.59 350.30,105.32 354.69,103.15 359.09,100.93 363.48,98.53 367.87,96.73 372.26,96.57 376.65,95.93 381.05,93.96 385.44,92.69 389.83,93.35 394.22,93.49 398.61,92.22 403.01,91.31 407.40,91.44 411.79,91.26 416.18,90.20 420.57,89.36 424.96,89.12 429.36,88.98 433.75,89.11 438.14,89.00 442.53,88.23 446.92,87.78 451.32,88.18 455.71,88.35 460.10,87.90 464.49,87.68 468.88,88.13 473.28,88.35 477.67,87.92 482.06,87.58 486.45,87.44 490.84,87.42 495.24,87.71 499.63,88.01 504.02,88.29 508.41,88.65 512.80,89.21 517.20,90.07 521.59,91.79 525.98,93.00 530.37,92.81 534.76,92.81 539.16,93.35 543.55,94.31 547.94,96.42 552.33,99.02 556.72,102.96 561.12,107.77 565.51,115.00 569.90,123.19 574.29,134.04 578.68,145.87 583.08,160.39 587.47,176.77 591.86,198.27 596.25,221.56 600.64,249.79 605.04,276.96 609.43,301.19 613.82,323.97 618.21,342.78 622.60,360.24 626.99,374.03 631.39,386.29 635.78,394.34 640.17,401.71 644.56,407.23 648.95,412.20 653.35,415.69 657.74,418.84 662.13,421.02 666.52,423.04 670.91,424.62 675.31,426.14 679.70,427.50 684.09,428.78 688.48,429.85 692.87,430.83 697.27,431.58 701.66,432.31 706.05,433.02 710.44,433.63 714.83,433.95 719.23,434.36 723.62,435.00 728.01,435.47 732.40,435.52 736.79,435.71 741.19,436.28 745.58,436.87 749.97,437.54 754.36,438.08 758.75,438.27 763.15,438.45 767.54,438.59 771.93,438.72 776.32,438.81 780.71,438.94 785.11,439.17 789.50,439.38 793.89,439.51 798.28,439.61 802.67,439.65 807.07,439.72 811.46,439.87 815.85,440.01 820.24,440.12 824.63,440.20 829.03,440.21 833.42,440.24 837.81,440.29 842.20,440.34 846.59,440.36 850.98,440.42 855.38,440.56 859.77,440.68 864.16,440.78 868.55,440.85 872.94,440.84 877.34,440.84 881.73,440.90 886.12,440.94 890.51,440.97 894.90,441.01 899.30,441.10 903.69,441.19 908.08,441.26 912.47,441.32 916.86,441.33 921.26,441.36 925.65,441.42 930.04,441.49 934.43,441.60 938.82,441.74 943.22,441.94 947.61,442.14 952.00,442.36"/>
<polyline fill="none" stroke="#555555" stroke-width="1.7" points="78.00,556.76 82.39,555.91 86.78,555.17 91.18,554.74 95.57,554.41 99.96,554.55 104.35,554.79 108.74,555.29 113.14,555.58 117.53,555.32 121.92,555.19 126.31,555.06 130.70,554.83 135.10,554.34 139.49,553.90 143.88,553.96 148.27,554.01 152.66,554.04 157.06,553.97 161.45,553.64 165.84,553.84 170.23,553.21 174.62,552.62 179.02,552.12 183.41,551.79 187.80,553.84 192.19,555.00 196.58,553.67 200.97,552.33 205.37,550.96 209.76,554.43 214.15,556.47 218.54,557.63 222.93,556.36 227.33,553.91 231.72,562.96 236.11,570.47 240.50,573.74 244.89,573.95 249.29,565.68 253.68,583.68 258.07,593.56 262.46,598.50 266.85,589.82 271.25,578.41 275.64,575.13 280.03,571.75 284.42,568.11 288.81,567.63 293.21,575.84 297.60,560.56 301.99,552.09 306.38,546.67 310.77,549.64 315.17,557.05 319.56,550.87 323.95,546.13 328.34,545.35 332.73,547.31 337.13,556.83 341.52,556.11 345.91,555.17 350.30,554.37 354.69,553.92 359.09,553.27 363.48,548.57 367.87,545.89 372.26,548.79 376.65,550.05 381.05,546.81 385.44,544.59 389.83,548.91 394.22,551.49 398.61,549.25 403.01,548.28 407.40,550.22 411.79,551.08 416.18,548.99 420.57,547.63 424.96,548.32 429.36,548.83 433.75,550.26 438.14,550.88 442.53,549.27 446.92,548.71 451.32,550.89 455.71,552.29 460.10,551.56 464.49,551.65 468.88,553.99 473.28,554.68 477.67,553.18 482.06,551.95 486.45,551.44 490.84,551.32 495.24,552.05 499.63,552.77 504.02,553.49 508.41,554.44 512.80,556.06 517.20,555.98 521.59,558.81 525.98,559.90 530.37,556.23 534.76,553.22 539.16,547.07 543.55,542.35 547.94,541.54 552.33,542.40 556.72,547.81 561.12,538.08 565.51,536.55 569.90,538.31 574.29,549.10 578.68,563.23 583.08,543.80 587.47,530.69 591.86,534.98 596.25,545.38 600.64,572.61 605.04,587.84 609.43,593.07 613.82,593.39 618.21,580.16 622.60,562.38 626.99,574.80 631.39,582.01 635.78,574.89 640.17,565.47 644.56,549.73 648.95,555.40 653.35,556.02 657.74,555.44 662.13,551.60 666.52,547.21 670.91,548.02 675.31,548.63 679.70,548.69 684.09,548.49 688.48,547.56 692.87,548.58 697.27,548.77 701.66,548.94 706.05,549.03 710.44,548.77 714.83,548.50 719.23,548.51 723.62,549.29 728.01,549.54 732.40,548.31 736.79,547.67 741.19,548.34 745.58,549.10 749.97,550.11 754.36,550.68 758.75,550.46 763.15,550.21 767.54,549.83 771.93,549.40 776.32,548.86 780.71,548.84 785.11,549.17 789.50,549.40 793.89,549.37 798.28,549.26 802.67,549.11 807.07,549.06 811.46,549.28 815.85,549.45 820.24,549.51 824.63,549.69 829.03,549.65 833.42,549.65 837.81,549.74 842.20,549.81 846.59,549.76 850.98,549.81 855.38,550.14 859.77,550.43 864.16,550.64 868.55,550.77 872.94,550.61 877.34,550.52 881.73,550.61 886.12,550.67 890.51,550.58 894.90,550.56 899.30,550.68 903.69,550.79 908.08,550.87 912.47,550.80 916.86,550.57 921.26,550.39 925.65,550.33 930.04,550.31 934.43,550.42 938.82,550.61 943.22,551.02 947.61,551.45 952.00,551.92"/>
<text x="90" y="78" font-family="Arial" font-size="12" fill="#0b5cad">MCC measured</text>
<text x="198" y="78" font-family="Arial" font-size="12" fill="#c65f00">RayStation CSV</text>
<text x="78" y="471" font-family="Arial" font-size="12">CSV-MCC difference in percentage points</text>
<text x="515.0" y="655" text-anchor="middle" font-family="Arial" font-size="13">Aligned cross-plane x (mm)</text>
<text x="18" y="250.5" transform="rotate(-90 18 250.5)" text-anchor="middle" font-family="Arial" font-size="13">Relative dose</text>
</svg>